:SAMPLES-PER-SECOND 30
:FULLY-SPECIFIED
:DEGREES
31
root  -62.7785 40.4428 -2.63533 38.4556 85.7746 43.6268
RightUpLeg  -17.7182 -4.79074 -6.45211
RightLeg  39.2935 -1.8987 -1.91551
RightFoot  -3.94898 -0.536088 7.87223
RightToes  -2.9104e-010 0 -3.6325e-017
Spine  10.4354 -0.690549 -4.32
Spine1  10.1939 -1.75432 1.38192
HEad  -2.88238 8.04465 -4.09417
LeftShoulder1  7.35873 -11.0402 -44.04
LeftArm  -22.3811 10.3227 -28.1499
LeftForeArm  7.00469 -3.03828 -0.993228
LeftHand  -0.244104 0.0205437 5.32207
RightShoulder  4.02131 6.96814 32.4572
RightArm  -7.50297 -19.6036 43.7553
RightForeArm  16.6494 15.3319 5.26867
RightHand  -0.0701791 -3.819 -3.88085
LeftUpLeg  6.78618 8.11726 -1.92897
LeftLeg  13.8795 18.221 -0.163676
LeftFoot  -18.3662 -0.209937 -5.21367
LeftToes  1.09107e-011 -5.80176e-011 5.60941e-012
32
root  -62.1961 40.4345 -2.70585 30.6861 86.1884 35.778
RightUpLeg  -18.6403 -6.70755 -4.51195
RightLeg  33.0189 -3.12896 -2.43047
RightFoot  -3.6297 -0.498859 7.02596
RightToes  -2.9104e-010 0 -3.6325e-017
Spine  11.2969 -1.00215 -4.68088
Spine1  10.016 -2.49964 2.75076
HEad  -3.69547 8.54872 -4.44124
LeftShoulder1  7.50636 -11.2013 -44.451
LeftArm  -20.8019 8.97186 -30.4461
LeftForeArm  12.2565 -5.50971 -2.01587
LeftHand  -0.244104 0.0205437 5.32207
RightShoulder  4.19272 7.17855 33.3028
RightArm  -8.84274 -21.1739 45.9018
RightForeArm  18.7321 12.7582 5.87417
RightHand  -0.0587797 -3.9701 -3.13432
LeftUpLeg  7.91565 7.83896 -1.30773
LeftLeg  13.403 18.3978 -0.262164
LeftFoot  -18.803 -0.224827 -5.17634
LeftToes  1.09107e-011 -5.80176e-011 5.60941e-012
33
root  -61.5282 40.3455 -2.77397 24.3253 86.2354 29.2979
RightUpLeg  -19.212 -9.28259 -2.58241
RightLeg  25.614 -2.87473 -1.8128
RightFoot  -3.45537 -0.467822 6.43634
RightToes  -2.9104e-010 0 -3.6325e-017
Spine  11.9608 -1.18436 -5.13517
Spine1  10.1027 -3.06219 3.85291
HEad  -4.94362 8.82962 -4.76482
LeftShoulder1  7.66028 -11.44 -44.6483
LeftArm  -17.3458 7.07117 -32.1589
LeftForeArm  17.9914 -8.46226 -3.60301
LeftHand  -0.244104 0.0205437 5.32207
RightShoulder  4.40919 7.53405 33.9966
RightArm  -5.83102 -22.8268 46.7947
RightForeArm  19.6343 12.5637 6.41566
RightHand  -0.0274434 -5.36038 -2.16505
LeftUpLeg  8.85782 7.82904 -1.01237
LeftLeg  13.5203 18.586 -0.141795
LeftFoot  -19.3608 -0.219522 -4.78508
LeftToes  1.09107e-011 -5.80176e-011 5.60941e-012
34
root  -60.7707 40.2006 -2.84438 21.1127 85.9251 25.9193
RightUpLeg  -19.4747 -12.2666 -0.880115
RightLeg  17.8064 -0.915608 -0.252389
RightFoot  -3.53177 -0.474446 6.59
RightToes  -2.9104e-010 0 -3.6325e-017
Spine  12.1713 -1.32014 -5.44281
Spine1  10.6391 -3.40447 4.39219
HEad  -6.26161 8.96305 -4.92352
LeftShoulder1  7.76831 -11.7029 -44.4901
LeftArm  -12.1644 4.71906 -33.5353
LeftForeArm  23.813 -11.7621 -4.98037
LeftHand  -0.244104 0.0205437 5.32207
RightShoulder  4.59653 7.89388 34.3768
RightArm  0.212536 -24.3445 47.0134
RightForeArm  18.6952 14.1435 6.72308
RightHand  -0.0151329 -6.60172 -1.79984
LeftUpLeg  9.90984 7.87155 -1.02602
LeftLeg  13.6035 18.8123 -0.142752
LeftFoot  -19.9783 -0.229489 -4.62155
LeftToes  1.09107e-011 -5.80176e-011 5.60941e-012
35
root  -59.9258 40.0531 -2.91633 19.6349 85.486 24.1726
RightUpLeg  -19.2874 -11.5832 -0.833734
RightLeg  10.113 -2.29875 2.02787
RightFoot  -3.45253 -0.481792 6.6395
RightToes  -2.9104e-010 0 -3.6325e-017
Spine  11.9731 -1.46084 -5.36004
Spine1  11.3811 -3.5617 4.40646
HEad  -7.16051 8.98172 -4.73069
LeftShoulder1  7.82279 -11.9361 -44.1087
LeftArm  -5.99844 2.34461 -34.7884
LeftForeArm  27.5989 -15.2104 -5.17168
LeftHand  -0.244104 0.0205437 5.32207
RightShoulder  4.66622 8.05587 34.4134
RightArm  6.53071 -25.5395 46.9707
RightForeArm  16.8822 16.0262 6.57013
RightHand  -0.018172 -6.36631 -1.68873
LeftUpLeg  11.2584 7.79525 -1.13113
LeftLeg  13.0967 19.2611 -0.499928
LeftFoot  -20.3328 -0.238901 -4.58769
LeftToes  1.09107e-011 -5.80176e-011 5.60941e-012
36
root  -58.9815 39.8748 -2.97669 20.4774 85.1554 24.6253
RightUpLeg  -18.9346 -6.59391 -2.65938
RightLeg  3.37691 -8.13318 4.5364
RightFoot  -3.02975 -0.511559 6.74125
RightToes  -2.9104e-010 0 -3.6325e-017
Spine  11.7077 -1.62016 -5.22364
Spine1  11.7207 -3.69529 4.31545
HEad  -7.50732 8.89408 -4.42761
LeftShoulder1  7.86874 -12.0831 -43.9416
LeftArm  -1.51014 0.261648 -35.7467
LeftForeArm  28.6074 -18.0995 -4.5547
LeftHand  -0.244104 0.0205437 5.32207
RightShoulder  4.64991 8.09009 34.1567
RightArm  10.4015 -26.347 46.6903
RightForeArm  16.2862 17.0674 6.33525
RightHand  -0.0283433 -5.52811 -0.794077
LeftUpLeg  12.6946 7.68525 -1.27773
LeftLeg  12.4816 19.7556 -1.00903
LeftFoot  -20.6735 -0.244143 -4.50918
LeftToes  1.09107e-011 -5.80176e-011 5.60941e-012
